<svg width="52" height="35" viewBox="0 0 52 35" fill="none" xmlns="http://www.w3.org/2000/svg">
<path fill-rule="evenodd" clip-rule="evenodd" d="M18.3749 16.823V25.9956C18.4682 26.8168 19.2483 28.4591 21.6222 28.4591H25.0375V26.6115H21.6222C21.137 26.6115 20.1665 26.3428 20.1665 25.2678V16.823H24.1975V14.8074H20.1665V11.4386H18.3749V14.8074H15.9111V16.823H18.3749Z" fill="black"/>
<path fill-rule="evenodd" clip-rule="evenodd" d="M45.3378 16.823V25.9956C45.4311 26.8168 46.2112 28.4591 48.5851 28.4591H52.0004V26.6115H48.5851C48.0999 26.6115 47.1294 26.3428 47.1294 25.2678V16.823H51.1603V14.8074H47.1294V11.4386H45.3378V14.8074H42.874V16.823H45.3378Z" fill="black"/>
<path d="M6.16465 31V9.4H8.83465V31H6.16465Z" fill="#383CF2"/>
<path d="M34.1646 31V9.4H36.8346V31H34.1646Z" fill="#F15525"/>
<ellipse cx="6.5" cy="3" rx="2.5" ry="3" fill="#F15525"/>
<ellipse cx="35.5" cy="3" rx="2.5" ry="3" fill="#383CF2"/>
</svg>
