<svg width="61" height="61" viewBox="0 0 61 61" fill="none" xmlns="http://www.w3.org/2000/svg">
<g clip-path="url(#clip0_17_351)">
<path d="M60.363 3.17737V11.3678H0.635742V3.17737C0.635742 1.77365 1.77365 0.635742 3.17737 0.635742H57.8213C59.2251 0.635742 60.363 1.77365 60.363 3.17737Z" fill="#2F80ED"/>
<path d="M60.3643 11.3678V57.8225C60.3643 59.2267 59.227 60.3641 57.8227 60.3641H3.17737C1.77306 60.3641 0.635742 59.2267 0.635742 57.8225V11.3678H60.3643Z" fill="white"/>
<path d="M55.9164 28.8292V17.0863C55.9164 16.3844 55.3474 15.8154 54.6455 15.8154H6.35449C5.65263 15.8154 5.08362 16.3844 5.08362 17.0863V28.8292C5.08362 29.531 5.65263 30.1 6.35449 30.1H54.6456C55.3474 30.0999 55.9164 29.5309 55.9164 28.8292Z" fill="#2F80ED"/>
<path d="M28.3015 6.00183C28.3015 6.83534 27.6259 7.51098 26.7923 7.51098H5.95727C5.12377 7.51098 4.44812 6.83534 4.44812 6.00183C4.44812 5.16832 5.12377 4.49268 5.95727 4.49268H26.7923C27.6259 4.49268 28.3015 5.16832 28.3015 6.00183Z" fill="white"/>
<path d="M54.9971 7.55519C55.855 7.55519 56.5505 6.85968 56.5505 6.00172C56.5505 5.14376 55.855 4.44824 54.9971 4.44824C54.1391 4.44824 53.4436 5.14376 53.4436 6.00172C53.4436 6.85968 54.1391 7.55519 54.9971 7.55519Z" fill="white"/>
<path d="M48.7541 7.55519C49.6121 7.55519 50.3076 6.85968 50.3076 6.00172C50.3076 5.14376 49.6121 4.44824 48.7541 4.44824C47.8961 4.44824 47.2006 5.14376 47.2006 6.00172C47.2006 6.85968 47.8961 7.55519 48.7541 7.55519Z" fill="white"/>
<path d="M42.5111 7.55519C43.3691 7.55519 44.0646 6.85968 44.0646 6.00172C44.0646 5.14376 43.3691 4.44824 42.5111 4.44824C41.6532 4.44824 40.9576 5.14376 40.9576 6.00172C40.9576 6.85968 41.6532 7.55519 42.5111 7.55519Z" fill="white"/>
<path d="M37.4895 43.9776V35.8185C37.4895 35.1166 36.9205 34.5476 36.2186 34.5476H24.7812C24.0794 34.5476 23.5104 35.1166 23.5104 35.8185V43.9776C23.5104 44.6794 24.0794 45.2485 24.7812 45.2485H36.2186C36.9205 45.2483 37.4895 44.6794 37.4895 43.9776Z" fill="#2F80ED"/>
<path d="M19.0626 43.9776V35.8185C19.0626 35.1166 18.4936 34.5476 17.7918 34.5476H6.35449C5.65263 34.5476 5.08362 35.1166 5.08362 35.8185V43.9776C5.08362 44.6794 5.65263 45.2485 6.35449 45.2485H17.7919C18.4937 45.2483 19.0626 44.6794 19.0626 43.9776Z" fill="#2F80ED"/>
<path d="M55.9164 43.9776V35.8185C55.9164 35.1166 55.3474 34.5476 54.6455 34.5476H43.2081C42.5063 34.5476 41.9373 35.1166 41.9373 35.8185V43.9776C41.9373 44.6794 42.5063 45.2485 43.2081 45.2485H54.6455C55.3474 45.2483 55.9164 44.6794 55.9164 43.9776Z" fill="#2F80ED"/>
<path d="M60.9985 3.17737C60.9985 1.42565 59.5732 0.000366211 57.8215 0.000366211H3.17737C1.42565 0.000366211 0.000366211 1.42565 0.000366211 3.17737V57.8225C0.000366211 59.5742 1.42565 60.9995 3.17737 60.9995H57.8225C59.5743 60.9995 60.9995 59.5742 60.9995 57.8225C60.9997 57.2287 60.9986 10.1757 60.9985 3.17737ZM1.27124 3.17737C1.27124 2.12619 2.12631 1.27112 3.17749 1.27112H57.8213C58.8725 1.27112 59.7276 2.12619 59.7276 3.17737V10.7322H1.27124V3.17737ZM57.8227 59.7289H3.17737C2.12619 59.7289 1.27112 58.8738 1.27112 57.8226V12.0031H59.7288V57.8226C59.7289 58.8738 58.8738 59.7289 57.8227 59.7289Z" fill="#1A2E35"/>
<path d="M54.6455 15.1801H6.35449C5.30331 15.1801 4.44824 16.0351 4.44824 17.0863V28.8289C4.44824 29.8801 5.30331 30.7352 6.35449 30.7352H54.6456C55.6968 30.7352 56.5519 29.8801 56.5519 28.8289V17.0863C56.5518 16.0351 55.6967 15.1801 54.6455 15.1801ZM55.281 28.8289C55.281 29.1796 54.9962 29.4643 54.6456 29.4643H6.35449C6.00386 29.4643 5.71912 29.1794 5.71912 28.8289V17.0863C5.71912 16.7357 6.00398 16.4509 6.35449 16.4509H54.6456C54.9963 16.4509 55.281 16.7358 55.281 17.0863V28.8289Z" fill="#1A2E35"/>
<path d="M26.7925 3.85754H5.95728C4.77457 3.85754 3.81274 4.81937 3.81274 6.00208C3.81274 7.18479 4.77457 8.14661 5.95728 8.14661H26.7923C27.9751 8.14661 28.9369 7.18479 28.9369 6.00208C28.9369 4.81937 27.9752 3.85754 26.7925 3.85754ZM26.7925 6.87573H5.95728C5.47571 6.87573 5.08362 6.48352 5.08362 6.00208C5.08362 5.52063 5.47583 5.12842 5.95728 5.12842H26.7923C27.2739 5.12842 27.666 5.52063 27.666 6.00208C27.666 6.48352 27.2739 6.87573 26.7925 6.87573Z" fill="#1A2E35"/>
<path d="M54.9967 3.81287C53.7898 3.81287 52.8081 4.79518 52.8081 6.00208C52.8081 7.20897 53.7898 8.19069 54.9967 8.19069C56.2036 8.19069 57.1859 7.20909 57.1859 6.00208C57.1859 4.79506 56.2036 3.81287 54.9967 3.81287ZM54.9967 6.9197C54.4904 6.9197 54.079 6.5083 54.079 6.00196C54.079 5.49561 54.4904 5.08362 54.9967 5.08362C55.5031 5.08362 55.9151 5.49561 55.9151 6.00196C55.9151 6.5083 55.5031 6.9197 54.9967 6.9197Z" fill="#1A2E35"/>
<path d="M48.7543 3.81287C47.5474 3.81287 46.5651 4.79518 46.5651 6.00208C46.5651 7.20897 47.5474 8.19069 48.7543 8.19069C49.9612 8.19069 50.9429 7.20909 50.9429 6.00208C50.9429 4.79506 49.9612 3.81287 48.7543 3.81287ZM48.7543 6.9197C48.248 6.9197 47.836 6.5083 47.836 6.00196C47.836 5.49561 48.248 5.08362 48.7543 5.08362C49.2607 5.08362 49.6721 5.49561 49.6721 6.00196C49.6721 6.5083 49.2607 6.9197 48.7543 6.9197Z" fill="#1A2E35"/>
<path d="M42.5114 3.81287C41.3045 3.81287 40.3221 4.79518 40.3221 6.00208C40.3221 7.20897 41.3045 8.19069 42.5114 8.19069C43.7182 8.19069 44.7 7.20909 44.7 6.00208C44.7 4.79506 43.7182 3.81287 42.5114 3.81287ZM42.5114 6.9197C42.005 6.9197 41.593 6.5083 41.593 6.00196C41.593 5.49561 42.005 5.08362 42.5114 5.08362C43.0177 5.08362 43.4291 5.49561 43.4291 6.00196C43.4291 6.5083 43.0176 6.9197 42.5114 6.9197Z" fill="#1A2E35"/>
<path d="M19.0626 49.0603H5.08362C4.73239 49.0603 4.44824 49.3445 4.44824 49.6957C4.44824 50.0469 4.73239 50.3311 5.08362 50.3311H19.0626C19.4139 50.3311 19.698 50.0469 19.698 49.6957C19.698 49.3445 19.4139 49.0603 19.0626 49.0603Z" fill="#1A2E35"/>
<path d="M19.0626 55.281H5.08362C4.73239 55.281 4.44824 55.5652 4.44824 55.9164C4.44824 56.2676 4.73239 56.5518 5.08362 56.5518H19.0626C19.4139 56.5518 19.698 56.2676 19.698 55.9164C19.698 55.5652 19.4139 55.281 19.0626 55.281Z" fill="#1A2E35"/>
<path d="M19.0626 52.171H5.08362C4.73239 52.171 4.44824 52.4552 4.44824 52.8064C4.44824 53.1576 4.73239 53.4418 5.08362 53.4418H19.0626C19.4139 53.4418 19.698 53.1576 19.698 52.8064C19.698 52.4552 19.4139 52.171 19.0626 52.171Z" fill="#1A2E35"/>
<path d="M37.4895 49.0603H23.5105C23.1593 49.0603 22.8751 49.3445 22.8751 49.6957C22.8751 50.0469 23.1593 50.3311 23.5105 50.3311H37.4895C37.8407 50.3311 38.1249 50.0469 38.1249 49.6957C38.1249 49.3445 37.8407 49.0603 37.4895 49.0603Z" fill="#1A2E35"/>
<path d="M37.4895 55.281H23.5105C23.1593 55.281 22.8751 55.5652 22.8751 55.9164C22.8751 56.2676 23.1593 56.5518 23.5105 56.5518H37.4895C37.8407 56.5518 38.1249 56.2676 38.1249 55.9164C38.1249 55.5652 37.8407 55.281 37.4895 55.281Z" fill="#1A2E35"/>
<path d="M37.4895 52.171H23.5105C23.1593 52.171 22.8751 52.4552 22.8751 52.8064C22.8751 53.1576 23.1593 53.4418 23.5105 53.4418H37.4895C37.8407 53.4418 38.1249 53.1576 38.1249 52.8064C38.1249 52.4552 37.8407 52.171 37.4895 52.171Z" fill="#1A2E35"/>
<path d="M55.9164 49.0603H41.9374C41.5862 49.0603 41.302 49.3445 41.302 49.6957C41.302 50.0469 41.5862 50.3311 41.9374 50.3311H55.9164C56.2676 50.3311 56.5518 50.0469 56.5518 49.6957C56.5518 49.3445 56.2676 49.0603 55.9164 49.0603Z" fill="#1A2E35"/>
<path d="M55.9164 55.281H41.9374C41.5862 55.281 41.302 55.5652 41.302 55.9164C41.302 56.2676 41.5862 56.5518 41.9374 56.5518H55.9164C56.2676 56.5518 56.5518 56.2676 56.5518 55.9164C56.5518 55.5652 56.2676 55.281 55.9164 55.281Z" fill="#1A2E35"/>
<path d="M55.9164 52.171H41.9374C41.5862 52.171 41.302 52.4552 41.302 52.8064C41.302 53.1576 41.5862 53.4418 41.9374 53.4418H55.9164C56.2676 53.4418 56.5518 53.1576 56.5518 52.8064C56.5518 52.4552 56.2676 52.171 55.9164 52.171Z" fill="#1A2E35"/>
<path d="M36.2186 33.9122H24.7813C23.7301 33.9122 22.875 34.7673 22.875 35.8185V43.9777C22.875 45.0289 23.7301 45.884 24.7813 45.884H36.2186C37.2698 45.884 38.1249 45.0289 38.1249 43.9777V35.8185C38.1249 34.7673 37.2698 33.9122 36.2186 33.9122ZM36.8541 43.9777C36.8541 44.3283 36.5693 44.6131 36.2188 44.6131H24.7814C24.4307 44.6131 24.146 44.3282 24.146 43.9777V35.8185C24.146 35.4679 24.4309 35.1831 24.7814 35.1831H36.2188C36.5694 35.1831 36.8541 35.468 36.8541 35.8185V43.9777Z" fill="#1A2E35"/>
<path d="M17.7919 33.9122H6.35449C5.30331 33.9122 4.44824 34.7673 4.44824 35.8185V43.9777C4.44824 45.0289 5.30331 45.884 6.35449 45.884H17.7919C18.8431 45.884 19.6981 45.0289 19.6981 43.9777V35.8185C19.698 34.7673 18.8429 33.9122 17.7919 33.9122ZM18.4272 43.9777C18.4272 44.3283 18.1424 44.6131 17.7919 44.6131H6.35449C6.00386 44.6131 5.71912 44.3282 5.71912 43.9777V35.8185C5.71912 35.4679 6.00398 35.1831 6.35449 35.1831H17.7919C18.1425 35.1831 18.4272 35.468 18.4272 35.8185V43.9777Z" fill="#1A2E35"/>
<path d="M54.6455 33.9122H43.2081C42.157 33.9122 41.3019 34.7673 41.3019 35.8185V43.9777C41.3019 45.0289 42.157 45.884 43.2081 45.884H54.6455C55.6967 45.884 56.5518 45.0289 56.5518 43.9777V35.8185C56.5518 34.7673 55.6967 33.9122 54.6455 33.9122ZM55.281 43.9777C55.281 44.3283 54.9961 44.6131 54.6456 44.6131H43.2082C42.8576 44.6131 42.5729 44.3282 42.5729 43.9777V35.8185C42.5729 35.4679 42.8577 35.1831 43.2082 35.1831H54.6456C54.9963 35.1831 55.281 35.468 55.281 35.8185V43.9777Z" fill="#1A2E35"/>
</g>
<defs>
<clipPath id="clip0_17_351">
<rect width="61" height="61" fill="white"/>
</clipPath>
</defs>
</svg>
